<svg t="1739322901321" class="icon" viewBox="0 0 1024 1024" version="1.1" xmlns="http://www.w3.org/2000/svg" p-id="21666" data-spm-anchor-id="a313x.search_index.0.i18.65083a81BkcR8h" width="200" height="200"><path d="M960.976593 310.480593v403.048296H542.208V376.689778h0.085333v-16.554667c0-27.316148 22.158222-49.540741 49.445926-49.654518h369.237334m16.554666-16.554667H592.19437v0.009481c-0.085333 0-0.161185-0.009481-0.246518-0.009481-36.570074 0-66.209185 29.639111-66.209185 66.209185h-0.085334V730.074074h451.868445V293.925926h0.009481zM498.261333 360.135111c0-36.570074-29.639111-66.209185-66.209185-66.209185-0.085333 0-0.161185 0.009481-0.246518 0.009481V293.925926H46.468741v436.148148H498.346667V360.135111h-0.085334z m-44.818963 256.018963c-0.047407 0.170667-0.085333 0.341333-0.13274 0.502519-0.18963 0.739556-0.360296 1.488593-0.512 2.237629-0.037926 0.199111-0.075852 0.388741-0.12326 0.587852-0.350815 1.792-0.625778 3.612444-0.796444 5.470815v0.018963c-0.094815 0.976593-0.151704 1.953185-0.199111 2.939259h-0.009482c-0.028444 0.739556-0.047407 1.488593-0.047407 2.23763 0 2.076444 0.132741 4.114963 0.360296 6.134518h-0.104296c0.009481 0.18963 0.028444 0.369778 0.028444 0.559408 0 7.509333-5.944889 13.605926-13.37837 13.909333h-0.056889c-0.170667 0.009481-0.331852 0.028444-0.502518 0.028444-0.44563 0-0.881778-0.028444-1.308445-0.06637-72.495407-1.46963-134.949926-44.591407-164.352-106.353778-28.86163 60.634074-89.571556 103.300741-160.379259 106.24v-0.047407c-4.333037-0.047407-8.049778-2.692741-9.642667-6.456889h-0.085333l-6.84563-17.834667-0.976592-2.550518-3.527111-9.187556-3.346963-8.713481c6.893037 0.986074 13.928296 1.498074 21.086814 1.498074 62.331259 0 115.655111-38.485333 137.566815-92.975408 1.156741-3.299556 2.199704-6.656 3.128889-10.059851-46.241185 0.331852-92.178963 1.934222-137.784889 4.788148-0.493037 0.104296-0.995556 0.161185-1.517037 0.161185-3.811556 0-6.930963-2.948741-7.215407-6.684445h-0.028445v-22.755555c50.052741-3.346963 100.503704-5.224296 151.314963-5.584593v-70.807703c-42.68563 0.246519-85.086815 1.678222-127.165629 4.285629-0.426667 0.075852-0.862815 0.123259-1.308445 0.12326-3.811556 0-6.930963-2.948741-7.215407-6.684445h-0.018963v-0.331852c0-0.075852-0.009481-0.142222-0.009482-0.218074 0-0.075852 0.009481-0.151704 0.009482-0.218074v-22.215111c50.953481-3.233185 102.33363-4.873481 154.102518-4.873482 51.693037 0 103.006815 1.640296 153.884445 4.864-1.820444 3.754667-2.853926 7.964444-2.853926 12.41126 0 0.938667 0.056889 1.867852 0.151704 2.787555h-0.180149c0.009481 0.18963 0.028444 0.369778 0.028445 0.559408 0 7.698963-6.238815 13.937778-13.937778 13.937777h-0.57837c-39.111111-2.465185-78.497185-3.896889-118.129778-4.314074v70.712889c50.811259 0.369778 101.262222 2.23763 151.314963 5.584593v0.009481a28.245333 28.245333 0 0 0-2.730667 12.164741c0 0.938667 0.056889 1.867852 0.142222 2.787556h-0.170666c0.009481 0.18963 0.028444 0.369778 0.028444 0.559407 0 7.433481-5.82163 13.482667-13.150815 13.89037v0.037926h-1.298963c-42.903704-2.730667-86.120296-4.342519-129.60237-4.835555 0.948148 3.451259 2.010074 6.855111 3.185778 10.211555 21.978074 54.357333 75.235556 92.719407 137.472 92.719408 7.224889 0 14.326519-0.530963 21.276444-1.526519-1.611852 3.242667-2.910815 6.712889-3.858963 10.334815z" p-id="21667" data-spm-anchor-id="a313x.search_index.0.i17.65083a81BkcR8h" class="selected" fill="#7dc5eb"></path><path d="M924.292741 636.169481c-0.123259-1.431704-0.208593-2.88237-0.208593-4.342518 0-9.377185 2.673778-18.138074 7.281778-25.552593-55.163259-3.109926-110.696296-4.835556-166.570667-5.148444V403.456c39.727407 0.417185 79.208296 1.85837 118.404741 4.323556h0.57837c7.698963 0 13.937778-6.238815 13.937778-13.937778 0-0.18963-0.018963-0.369778-0.028444-0.559408h0.180148c-0.085333-0.919704-0.151704-1.848889-0.151704-2.787555 0-4.456296 1.024-8.666074 2.853926-12.411259-50.87763-3.223704-102.191407-4.864-153.884444-4.864-51.768889 0-103.149037 1.640296-154.102519 4.873481v22.215111c0 0.075852-0.009481 0.142222-0.009481 0.218074s0.009481 0.142222 0.009481 0.218074v0.331852h0.018963c0.284444 3.735704 3.403852 6.684444 7.215407 6.684445 0.44563 0 0.881778-0.047407 1.308445-0.12326 41.993481-2.597926 84.299852-4.039111 126.890667-4.285629V601.125926c-55.893333 0.312889-111.454815 2.029037-166.637037 5.148444v37.812149h0.028444c0.284444 3.735704 3.403852 6.684444 7.215407 6.684444 0.18963 0 0.369778-0.009481 0.559408-0.028444v0.028444c55.684741-3.318519 111.796148-5.015704 168.315259-5.015704 56.528593 0 112.668444 1.697185 168.362667 5.015704h4.408889v-0.009482c0.037926 0 0.075852 0.009481 0.113777 0.009482 7.698963 0 13.937778-6.238815 13.937778-13.937778 0-0.227556-0.018963-0.44563-0.037926-0.673185h0.009482z" p-id="21668" data-spm-anchor-id="a313x.search_index.0.i19.65083a81BkcR8h" class="selected" fill="#7dc5eb"></path></svg>